<?xml version="1.0" standalone="no"?>
<!DOCTYPE svg PUBLIC "-//W3C//DTD SVG 20010904//EN"
 "http://www.w3.org/TR/2001/REC-SVG-20010904/DTD/svg10.dtd">
<svg version="1.0" xmlns="http://www.w3.org/2000/svg"
 width="1024.000000pt" height="1024.000000pt" viewBox="0 0 1024.000000 1024.000000"
 preserveAspectRatio="xMidYMid meet">

<g transform="translate(0.000000,1024.000000) scale(0.100000,-0.100000)"
fill="#000000" stroke="none">
<path d="M4967 9210 c-184 -14 -261 -34 -314 -83 -22 -20 -23 -26 -23 -216 -1
-108 -5 -265 -10 -350 l-9 -154 31 -61 c37 -74 35 -106 -18 -288 -70 -237
-114 -414 -130 -523 -20 -136 -14 -347 16 -510 35 -188 35 -179 9 -214 -16
-23 -24 -50 -28 -101 l-6 -70 -175 -113 c-96 -62 -215 -137 -265 -167 -127
-76 -287 -185 -310 -210 -18 -20 -20 -40 -23 -193 -5 -221 1 -269 39 -311 l29
-34 0 -1141 0 -1141 30 0 30 0 0 1028 0 1029 107 6 c58 4 160 7 225 7 100 0
120 3 125 16 8 22 -14 34 -63 34 -22 0 -45 5 -52 12 -7 7 -12 42 -12 89 l0 76
268 7 c147 4 271 12 276 17 6 6 5 14 -2 22 -10 9 -86 13 -285 17 l-272 5 -3
201 -2 202 289 3 c215 3 293 7 303 17 30 30 -8 36 -256 42 -134 3 -247 8 -251
11 -3 4 103 108 235 233 l241 226 420 0 419 0 123 -112 c67 -61 180 -166 250
-232 l129 -121 -260 -5 c-143 -3 -263 -8 -266 -11 -13 -13 7 -37 36 -43 17 -3
149 -6 294 -6 l264 0 -2 -202 -3 -203 -272 -5 c-206 -4 -275 -8 -285 -18 -11
-11 -10 -16 6 -28 16 -11 70 -14 278 -14 l258 0 0 -78 c0 -89 -8 -102 -60
-102 -47 0 -81 -23 -62 -42 10 -10 68 -14 232 -16 l220 -4 0 -1024 0 -1024 30
0 30 0 0 1142 0 1142 27 28 c16 17 29 45 34 75 10 60 10 278 0 357 -9 72 -22
86 -182 181 -178 106 -500 313 -545 351 -40 32 -42 37 -49 104 -5 53 -13 78
-31 99 l-24 28 28 114 c25 108 27 127 27 364 0 240 -2 255 -29 370 -15 66 -53
199 -83 295 -65 205 -72 273 -36 355 21 49 21 57 16 408 l-6 358 -32 24 c-46
36 -97 51 -210 63 -155 17 -299 21 -428 12z m408 -70 c146 -18 175 -28 191
-66 15 -37 20 -240 5 -262 -6 -10 -17 -10 -52 -1 -26 6 -162 13 -326 16 -228
4 -301 2 -383 -11 -55 -9 -105 -16 -111 -16 -7 0 -9 48 -7 140 2 108 6 143 18
154 16 17 121 41 240 56 85 10 306 5 425 -10z m23 -380 c102 -12 159 -28 167
-49 4 -9 11 -75 17 -148 10 -128 10 -134 -13 -195 -42 -111 -31 -203 61 -493
58 -186 81 -300 87 -451 3 -79 2 -143 -3 -146 -5 -3 -58 1 -119 8 -60 7 -118
13 -127 14 -16 0 -18 13 -18 138 0 75 -5 182 -10 237 -14 154 -51 428 -60 445
-4 8 -16 15 -26 15 -17 0 -19 -7 -16 -60 1 -33 9 -109 17 -170 20 -149 35
-367 35 -497 l0 -108 -63 0 c-35 0 -152 3 -260 7 l-197 6 0 81 c0 105 14 260
45 519 14 114 23 212 20 217 -11 18 -35 11 -45 -12 -29 -68 -88 -652 -76 -760
l6 -57 -33 -5 c-93 -15 -220 -27 -232 -22 -20 7 -20 92 1 238 17 127 34 198
104 443 55 191 72 282 64 336 -5 30 -3 38 12 43 40 12 267 26 442 26 l183 0
-3 22 c-2 14 -13 25 -28 29 -54 15 -416 5 -594 -17 l-59 -7 6 134 c4 74 12
151 17 171 11 38 19 43 105 63 91 22 410 25 593 5z m-39 -1517 c23 -6 24 -7
17 -97 -13 -175 -28 -270 -44 -283 -11 -10 -69 -13 -208 -13 l-192 0 -6 24
c-6 26 -46 328 -46 351 0 9 14 15 43 18 74 6 411 7 436 0z m244 -24 l107 -12
0 -51 c0 -51 -22 -198 -41 -268 l-10 -38 -129 0 c-151 0 -139 -16 -111 145 10
61 22 141 26 178 7 63 9 68 29 64 11 -3 69 -11 129 -18z m-783 2 c0 -5 9 -76
20 -157 11 -82 20 -164 20 -181 l0 -33 -128 0 -128 0 -23 123 c-13 67 -26 147
-28 179 l-6 56 69 7 c38 3 74 8 79 10 22 8 125 4 125 -4z m868 -440 c30 -16
39 -58 18 -79 -15 -15 -65 -17 -509 -20 -271 -1 -526 1 -567 5 -74 8 -75 8
-78 38 -4 53 8 59 120 66 182 12 991 4 1016 -10z m-1119 -204 c-31 -29 -121
-113 -200 -187 -80 -74 -170 -156 -200 -182 l-56 -48 -117 0 c-64 0 -116 4
-116 8 0 5 44 36 98 71 349 225 475 307 531 346 37 27 74 45 90 45 24 -1 23
-4 -30 -53z m1243 -30 c68 -46 202 -132 298 -192 253 -156 280 -174 280 -185
0 -6 -48 -10 -121 -10 l-121 0 -151 138 c-195 176 -337 313 -337 323 0 22 38
3 152 -74z m-1732 -651 l0 -204 -141 -7 c-102 -5 -144 -4 -152 4 -8 8 -13 77
-15 211 l-3 200 155 0 156 0 0 -204z m2418 27 c2 -137 -1 -180 -13 -209 l-15
-37 -137 7 c-88 5 -140 12 -145 19 -4 7 -8 99 -8 205 l0 193 158 -3 157 -3 3
-172z m-145 -299 l77 -6 0 -79 0 -79 -134 0 -133 0 -7 82 c-8 95 -5 98 68 92
28 -2 86 -6 129 -10z m-2243 -78 l0 -83 -116 -5 c-161 -7 -154 -11 -154 78 0
59 3 75 18 83 9 6 70 11 135 11 l117 0 0 -84z"/>
<path d="M5030 7696 c0 -125 -3 -157 -15 -170 -35 -35 -71 24 -41 68 13 21 13
26 1 36 -22 18 -49 8 -59 -23 -8 -23 -6 -36 9 -65 32 -59 90 -67 148 -21 l27
20 0 155 0 154 -35 0 -35 0 0 -154z"/>
<path d="M5160 7670 l0 -180 35 0 c53 0 102 25 125 62 16 26 20 50 20 116 0
130 -36 181 -127 182 l-53 0 0 -180z m124 148 c14 -13 28 -36 32 -51 5 -23 3
-29 -15 -34 -18 -4 -21 -13 -21 -52 -1 -55 -17 -130 -32 -149 -19 -22 -28 6
-28 92 0 69 -3 82 -25 108 -28 33 -31 58 -13 88 18 28 70 26 102 -2z"/>
<path d="M5009 6208 c-79 -28 -137 -72 -177 -136 -50 -78 -65 -140 -60 -242 6
-104 25 -143 114 -239 47 -51 55 -65 52 -93 l-3 -33 -258 -3 -258 -2 -15 -35
c-16 -39 -19 -132 -4 -169 l10 -26 290 0 290 0 0 30 0 30 -267 2 -268 3 0 50
0 50 263 5 c219 4 264 8 273 20 5 9 7 44 3 85 -6 68 -8 72 -59 125 -80 83 -99
127 -100 230 0 73 4 93 28 142 29 60 72 100 147 138 61 32 184 33 250 3 135
-62 208 -229 166 -379 -15 -51 -27 -68 -87 -125 l-69 -65 0 -77 c0 -65 3 -78
19 -87 12 -6 117 -10 270 -10 l251 0 0 -55 0 -55 -265 0 -265 0 0 -25 0 -25
295 0 295 0 0 90 c0 137 15 130 -290 130 l-250 0 0 35 c0 28 11 47 59 100 90
99 101 128 101 271 0 113 -2 122 -29 169 -91 159 -283 232 -452 173z"/>
<path d="M5080 6048 c-105 -30 -164 -144 -129 -249 18 -53 54 -95 103 -118
l44 -22 7 -215 c7 -212 8 -215 29 -212 21 3 21 8 26 218 l5 214 35 10 c19 6
50 26 70 46 103 103 61 285 -73 325 -57 17 -68 17 -117 3z m106 -64 c56 -27
74 -58 74 -127 0 -55 -3 -62 -35 -93 -60 -56 -105 -55 -182 2 -57 43 -54 160
5 203 48 33 90 38 138 15z"/>
<path d="M5159 5013 c0 -65 -4 -144 -8 -175 -7 -57 -7 -58 18 -58 62 0 100 20
122 62 29 58 38 182 15 226 -20 38 -62 62 -111 62 l-35 0 -1 -117z m102 50
c21 -65 -6 -260 -35 -250 -11 4 -22 247 -12 274 10 25 35 13 47 -24z"/>
<path d="M4975 5058 c-2 -7 -8 -36 -15 -63 -17 -77 -25 -85 -47 -46 -38 70
-59 96 -81 99 -12 2 -22 0 -21 -5 0 -4 8 -68 17 -141 18 -141 39 -177 34 -59
-3 79 6 80 45 4 l26 -52 16 62 c9 34 19 65 23 68 6 6 14 -37 20 -110 3 -25 8
-31 31 -33 15 -2 27 0 27 5 0 4 -7 62 -15 128 -8 66 -15 128 -15 138 0 20 -38
24 -45 5z"/>
<path d="M5406 5042 c-7 -12 -86 -244 -86 -254 0 -19 16 -6 27 22 19 51 80 27
71 -28 -2 -12 5 -18 26 -20 l29 -4 -7 122 c-4 67 -11 133 -16 146 -9 23 -34
32 -44 16z m-5 -175 c-21 -21 -30 7 -13 43 l16 35 4 -34 c2 -18 -1 -38 -7 -44z"/>
<path d="M4718 5033 c-22 -5 -22 3 2 -121 11 -56 20 -116 20 -132 0 -28 3 -30
36 -30 30 0 35 3 29 18 -4 9 -17 73 -29 141 -12 69 -26 126 -31 127 -6 1 -18
0 -27 -3z"/>
<path d="M5555 5018 c-2 -7 -14 -62 -25 -123 -12 -60 -24 -120 -27 -132 -4
-19 -1 -23 17 -23 11 0 19 4 16 9 -7 11 13 112 23 124 4 4 13 -24 20 -62 15
-84 33 -105 54 -64 23 45 70 221 64 238 -12 31 -25 13 -37 -50 -7 -36 -16 -68
-21 -71 -8 -5 -10 0 -29 91 -11 50 -25 75 -42 75 -5 0 -10 -6 -13 -12z"/>
<path d="M4614 5010 c-7 -7 0 -48 19 -126 22 -88 26 -119 17 -127 -18 -19 -34
11 -65 128 -27 102 -33 111 -66 97 -14 -6 -12 -19 13 -107 37 -128 48 -149 77
-153 75 -11 100 29 75 122 -9 33 -21 85 -28 115 -11 55 -23 70 -42 51z"/>
<path d="M5756 4959 c-2 -8 -22 -67 -45 -132 -24 -66 -41 -120 -39 -122 7 -6
47 -25 52 -25 3 0 6 8 6 18 0 24 41 143 70 205 12 26 21 49 19 52 -2 2 -16 6
-31 10 -20 5 -29 3 -32 -6z"/>
<path d="M4353 4914 c-23 -23 -25 -31 -20 -75 7 -60 37 -129 68 -157 18 -18
35 -22 86 -22 65 0 76 8 48 36 -8 9 -15 33 -15 54 0 22 -9 64 -21 94 -34 92
-95 121 -146 70z m84 -68 c37 -73 45 -106 28 -112 -11 -5 -12 -10 -2 -24 13
-21 5 -36 -13 -25 -16 10 -46 79 -64 148 -27 103 2 110 51 13z"/>
<path d="M5860 4919 c0 -5 -21 -58 -46 -117 -25 -59 -48 -113 -51 -120 -3 -7
13 -20 42 -33 43 -19 49 -20 63 -5 15 15 14 16 -10 16 -38 0 -42 13 -19 66 16
35 25 45 38 40 17 -7 33 8 33 31 0 7 -7 10 -15 7 -19 -8 -19 7 -1 51 16 38 27
43 46 20 13 -16 35 -10 24 6 -7 11 -79 49 -94 49 -5 0 -10 -5 -10 -11z"/>
<path d="M6130 4838 c0 -30 0 -31 20 -13 11 10 20 24 20 32 0 7 -9 13 -20 13
-16 0 -20 -7 -20 -32z"/>
<path d="M4196 4847 c-16 -12 -16 -16 3 -87 11 -41 25 -103 32 -138 13 -68 17
-75 39 -62 12 7 12 12 2 22 -17 17 -15 42 7 62 18 16 20 16 39 -8 22 -29 33
-31 63 -15 19 10 18 13 -22 62 -23 29 -62 80 -87 115 -25 34 -48 62 -52 62 -3
0 -14 -6 -24 -13z m84 -164 c0 -14 -26 -18 -33 -5 -3 4 -8 23 -12 42 l-7 35
26 -30 c14 -16 25 -36 26 -42z"/>
<path d="M5985 4788 c-21 -40 -53 -96 -71 -124 l-32 -52 50 -27 c46 -25 51
-26 66 -11 15 15 14 16 -16 16 -18 0 -32 3 -32 7 0 3 27 58 61 122 56 107 59
116 43 128 -10 7 -21 13 -24 13 -3 0 -23 -33 -45 -72z"/>
<path d="M4027 4839 c-17 -10 -17 -12 -2 -36 48 -72 135 -240 135 -259 0 -39
-53 -41 -65 -3 -4 11 -2 26 4 33 8 10 7 17 -4 26 -13 11 -19 10 -35 -5 -28
-25 -25 -52 10 -87 26 -25 36 -29 62 -24 51 10 81 44 74 84 -6 39 -136 282
-151 282 -5 -1 -18 -5 -28 -11z"/>
<path d="M6152 4763 c-25 -10 -44 -65 -43 -130 0 -69 -11 -103 -33 -103 -7 0
-18 11 -24 25 -13 28 -27 32 -35 10 -8 -21 49 -65 84 -65 44 0 62 36 67 139 2
47 8 90 13 95 12 13 39 -12 39 -38 1 -20 1 -20 15 -3 18 24 10 44 -26 62 -29
16 -36 17 -57 8z"/>
<path d="M4995 4510 c9 -68 10 -70 41 -70 30 0 31 12 2 25 -16 7 -24 20 -26
45 -2 19 -8 40 -14 45 -7 7 -8 -7 -3 -45z"/>
<path d="M5147 4553 c-13 -13 -7 -33 18 -55 32 -28 32 -38 -2 -39 -27 0 -27
-1 -5 -9 55 -22 76 21 30 61 l-33 28 28 1 c16 0 26 4 22 10 -7 11 -48 14 -58
3z"/>
<path d="M5240 4550 c0 -4 7 -11 16 -14 11 -4 15 -16 12 -44 -1 -20 2 -39 7
-42 6 -3 11 11 13 30 2 19 10 41 19 47 9 7 15 14 12 16 -10 9 -79 15 -79 7z"/>
<path d="M4902 4533 c-15 -29 -25 -103 -14 -103 5 0 12 7 16 15 7 18 42 20 49
3 3 -8 6 -6 6 5 1 22 -24 82 -37 91 -6 4 -15 -1 -20 -11z m28 -43 c0 -11 -4
-20 -10 -20 -5 0 -10 9 -10 20 0 11 5 20 10 20 6 0 10 -9 10 -20z"/>
<path d="M5090 4499 c0 -31 4 -48 10 -44 6 3 10 26 10 51 0 24 -4 44 -10 44
-5 0 -10 -23 -10 -51z"/>
<path d="M5402 4528 c-7 -7 -12 -31 -12 -55 l0 -43 40 0 c39 0 40 1 40 35 0
22 -8 43 -20 55 -23 23 -31 25 -48 8z m48 -22 c0 -8 -4 -17 -8 -20 -13 -8 -35
11 -28 23 10 16 36 14 36 -3z m-16 -42 c22 -9 20 -24 -3 -24 -21 0 -34 13 -24
24 8 7 8 7 27 0z"/>
<path d="M4807 4523 c-4 -3 -7 -14 -7 -24 0 -30 -19 -31 -45 -2 l-24 28 -1
-52 c0 -58 17 -82 22 -31 l4 33 14 -28 c13 -27 15 -27 27 -11 7 10 13 27 14
38 0 16 4 13 12 -11 20 -52 29 -51 22 2 -10 65 -18 78 -38 58z"/>
<path d="M5511 4491 c-6 -10 -12 -34 -13 -53 -3 -30 0 -33 27 -36 28 -3 29 -2
11 11 -16 11 -18 21 -12 55 7 46 3 53 -13 23z"/>
<path d="M4666 4475 c4 -16 13 -43 20 -60 14 -30 14 -30 9 15 -3 25 -13 52
-21 60 -14 13 -15 12 -8 -15z"/>
<path d="M5601 4472 c-5 -9 -12 -34 -16 -55 -6 -30 -4 -37 8 -37 8 0 24 -3 34
-7 12 -4 10 0 -7 15 l-25 21 24 9 c16 6 20 11 13 16 -18 11 -14 26 7 26 29 0
34 17 8 24 -32 8 -35 8 -46 -12z"/>
<path d="M4617 4450 c6 -35 -6 -39 -32 -10 -21 23 -50 27 -42 6 3 -8 11 -33
17 -55 6 -23 16 -41 22 -41 10 0 8 16 -8 54 -7 19 -6 19 28 -2 53 -33 57 -29
37 41 -12 44 -31 50 -22 7z"/>
<path d="M5691 4408 c-25 -60 -21 -74 8 -27 17 27 21 30 21 14 1 -11 7 -33 14
-50 l14 -30 22 48 c24 54 22 89 -3 42 l-15 -30 -11 28 c-6 16 -11 35 -11 43 0
30 -18 12 -39 -38z"/>
<path d="M4490 4428 c0 -7 9 -31 19 -53 16 -32 20 -36 20 -17 1 22 -24 82 -34
82 -3 0 -5 -6 -5 -12z"/>
<path d="M4427 4413 c-4 -3 -7 -22 -7 -41 l0 -35 -23 21 c-23 22 -47 29 -47
15 0 -17 34 -93 41 -93 5 0 4 12 -1 26 -17 43 -11 49 20 19 l30 -29 0 40 c1
36 2 38 15 20 8 -10 16 -24 18 -30 2 -6 8 -8 13 -3 9 8 -31 97 -44 97 -5 0
-12 -3 -15 -7z"/>
<path d="M5811 4367 c-27 -57 -27 -62 10 -78 30 -12 33 -11 55 15 13 15 24 34
24 42 0 16 -44 64 -59 64 -5 0 -19 -19 -30 -43z m69 -27 c0 -23 -26 -44 -45
-36 -20 7 -19 35 2 58 18 21 43 8 43 -22z"/>
<path d="M5372 4209 c-26 -17 -31 -25 -25 -43 11 -28 10 -195 0 -224 -8 -22
-7 -23 45 -20 42 2 52 6 48 18 -3 8 -6 67 -7 130 -3 120 -8 160 -21 160 -4 0
-22 -10 -40 -21z"/>
<path d="M4810 4093 c0 -71 -3 -138 -6 -150 -5 -20 -2 -23 20 -23 26 0 26 0
26 80 0 44 3 80 8 80 4 -1 33 -37 64 -80 53 -73 79 -93 92 -72 3 5 6 71 7 148
1 132 0 139 -19 142 -19 3 -20 -1 -15 -79 7 -96 2 -96 -57 -9 -52 76 -67 90
-96 90 l-24 0 0 -127z"/>
<path d="M5097 4176 c-51 -47 -44 -112 15 -145 36 -20 74 -2 94 44 12 31 12
39 0 70 -9 21 -26 39 -41 45 -36 14 -39 13 -68 -14z m63 -71 c0 -17 -6 -40
-14 -51 -14 -18 -15 -18 -25 9 -6 16 -11 34 -11 42 0 8 5 26 11 42 10 27 11
27 25 9 8 -11 14 -34 14 -51z"/>
<path d="M5235 4060 c-4 -6 -3 -16 3 -22 6 -6 12 -6 17 2 4 6 3 16 -3 22 -6 6
-12 6 -17 -2z"/>
<path d="M5104 3955 c-9 -23 9 -37 42 -33 21 2 29 8 29 23 0 26 -62 35 -71 10z"/>
<path d="M4698 3753 c-42 -45 -176 -208 -199 -243 -15 -22 -25 -26 -100 -30
-66 -4 -84 -8 -84 -20 0 -12 18 -16 86 -18 l87 -3 118 142 c131 155 155 189
148 201 -9 14 -19 9 -56 -29z"/>
<path d="M5131 3600 c-86 -88 -93 -90 -136 -34 -15 19 -38 42 -51 51 -25 16
-26 15 -75 -33 -54 -53 -68 -51 -69 11 0 45 -11 75 -26 75 -21 0 -180 -203
-163 -209 7 -2 41 26 76 63 l62 67 23 -47 c13 -27 28 -50 34 -51 6 -2 36 16
65 40 l54 45 52 -49 c31 -29 61 -49 75 -49 28 0 178 153 178 182 0 32 -19 20
-99 -62z"/>
<path d="M5307 3641 c-44 -41 -127 -141 -127 -154 0 -23 39 3 101 68 40 41 75
75 79 75 3 0 13 -13 23 -29 30 -50 108 -131 128 -131 10 0 38 17 60 38 l42 37
166 10 c101 6 165 14 164 20 -2 6 -71 11 -175 13 l-172 2 -39 -42 -39 -43 -83
89 -82 89 -46 -42z"/>
<path d="M4817 3242 c-32 -33 -34 -65 -7 -92 33 -33 100 -20 100 20 0 30 -19
34 -32 6 -12 -28 -27 -33 -46 -14 -28 28 -1 78 44 78 30 0 31 16 2 24 -33 8
-32 9 -61 -22z"/>
<path d="M5598 3259 c-26 -15 -22 -34 15 -68 l32 -31 -27 0 c-16 0 -28 -5 -28
-11 0 -6 16 -9 38 -7 29 2 38 8 40 25 2 16 -5 26 -27 38 -40 20 -39 35 0 35
27 0 30 2 19 15 -14 17 -37 19 -62 4z"/>
<path d="M4445 3250 c-10 -17 4 -47 30 -64 35 -23 32 -39 -6 -31 -24 6 -30 4
-27 -6 3 -8 21 -15 41 -17 29 -3 38 1 48 19 11 21 8 26 -27 56 l-39 33 33 0
c17 0 32 5 32 10 0 13 -77 13 -85 0z"/>
<path d="M4634 3237 c-8 -34 -1 -102 11 -102 6 0 11 18 13 39 l3 40 39 -45
c46 -52 56 -45 52 35 -4 61 -22 68 -22 9 l0 -37 -36 42 c-41 48 -51 51 -60 19z"/>
<path d="M5060 3195 l0 -65 39 0 c46 0 65 17 24 22 -30 3 -43 25 -19 33 49 15
51 18 22 24 -34 7 -37 24 -6 29 36 6 21 22 -20 22 l-40 0 0 -65z"/>
<path d="M5257 3254 c-11 -11 -8 -114 2 -114 6 0 11 17 13 38 l3 37 20 -37
c10 -21 22 -38 26 -38 4 0 13 16 19 35 16 47 30 44 30 -7 0 -30 3 -39 11 -31
14 14 7 115 -8 121 -7 2 -22 -13 -34 -32 l-21 -37 -17 33 c-16 33 -32 44 -44
32z"/>
<path d="M5468 3238 c-26 -47 -48 -101 -43 -106 3 -3 13 2 23 11 24 22 50 22
74 0 17 -15 18 -15 18 3 0 24 -34 99 -48 108 -6 4 -17 -4 -24 -16z m32 -32 c0
-15 -18 -31 -26 -23 -7 7 7 37 17 37 5 0 9 -6 9 -14z"/>
<path d="M5717 3253 c-10 -9 -8 -111 2 -117 4 -3 13 6 19 19 15 32 40 32 52
-1 15 -39 30 -19 30 41 0 60 -15 80 -30 41 -12 -33 -38 -33 -50 -1 -10 27 -13
29 -23 18z"/>
<path d="M4572 3195 c2 -30 8 -55 13 -56 13 0 18 36 10 77 -10 55 -26 40 -23
-21z"/>
<path d="M4950 3190 l0 -60 34 0 c19 0 38 5 41 10 3 6 -2 10 -12 10 -29 0 -43
20 -43 62 0 21 -4 38 -10 38 -6 0 -10 -27 -10 -60z"/>
<path d="M3778 3201 c-71 -84 -150 -301 -169 -467 -16 -132 -9 -299 13 -321
16 -15 21 -14 77 20 63 39 91 46 91 22 0 -26 119 -249 169 -315 27 -36 101
-116 165 -178 82 -80 116 -119 116 -136 0 -12 8 -47 19 -77 10 -30 21 -75 25
-101 4 -27 18 -61 34 -81 15 -20 46 -60 69 -91 48 -62 93 -98 141 -114 19 -6
46 -22 62 -36 30 -25 58 -31 210 -42 76 -5 92 -3 154 20 37 14 72 26 77 26 5
0 30 -19 54 -41 l45 -42 93 89 c149 144 208 184 562 379 191 105 245 141 346
232 140 124 211 219 299 400 l66 133 66 -40 c37 -22 72 -40 77 -40 20 0 26 54
25 210 -1 134 -4 168 -27 250 -44 160 -135 355 -172 367 -6 2 -76 -79 -157
-179 -80 -101 -184 -227 -232 -282 -48 -54 -94 -110 -103 -123 -25 -38 -4 -45
110 -38 57 4 97 3 97 -3 0 -18 -80 -131 -140 -198 -136 -150 -272 -231 -403
-241 -65 -5 -81 -3 -130 20 -99 45 -131 123 -143 349 -4 69 -10 132 -14 138
-5 8 -16 9 -30 5 -23 -7 -23 -9 -16 -121 16 -285 51 -371 176 -428 70 -32 203
-28 293 9 129 52 255 151 357 280 59 75 130 193 130 217 0 30 -36 40 -116 33
-41 -4 -74 -5 -74 -1 0 3 31 41 68 83 88 102 199 235 247 298 l38 50 -6 -94
c-15 -208 -85 -432 -188 -597 -64 -101 -207 -257 -293 -318 -65 -46 -212 -122
-439 -226 -76 -35 -178 -89 -225 -121 -48 -31 -90 -55 -94 -52 -5 2 -8 86 -8
186 0 100 -3 321 -7 490 -5 249 -9 310 -20 314 -8 3 -17 2 -21 -2 -4 -3 -9
-226 -12 -495 -3 -269 -8 -491 -11 -495 -4 -3 -42 17 -85 45 -70 46 -226 126
-409 210 -101 47 -102 47 -71 108 l26 52 73 0 c107 0 170 22 227 79 76 76 110
200 110 407 0 84 -2 94 -18 94 -29 0 -42 -21 -42 -71 0 -25 -3 -67 -6 -93 l-7
-46 -71 0 c-87 0 -253 -55 -301 -99 -62 -58 -135 -102 -158 -95 -51 16 -295
300 -275 320 3 3 48 8 99 10 52 3 100 8 107 10 21 6 -7 44 -133 184 -98 110
-164 191 -302 374 -24 31 -47 56 -52 56 -5 0 -20 -13 -33 -29z m107 -153 c37
-57 184 -236 259 -318 l60 -65 -87 -5 c-115 -7 -121 -14 -79 -93 47 -91 125
-191 225 -288 l89 -86 -16 -31 c-9 -17 -21 -34 -26 -37 -37 -23 -225 186 -313
346 -53 94 -105 263 -133 427 -35 207 -32 230 21 150z m2689 -168 c26 -105 49
-390 31 -390 -2 0 -29 16 -59 35 -83 53 -89 50 -129 -55 -55 -145 -140 -286
-242 -398 -109 -119 -260 -222 -575 -392 -74 -40 -164 -92 -200 -115 -81 -52
-237 -190 -245 -216 -4 -10 -10 -19 -15 -19 -5 0 -37 30 -71 66 -105 108 -185
167 -364 264 -217 118 -229 129 -227 199 2 55 20 65 68 42 21 -11 109 -54 195
-94 144 -69 262 -139 351 -210 43 -34 39 -35 173 61 83 59 185 113 477 250
128 60 222 120 306 195 170 153 284 320 353 517 23 63 74 306 85 400 l7 65 32
-70 c18 -38 40 -99 49 -135z m-2775 60 c35 -317 167 -600 372 -795 l89 -84 0
-66 c0 -36 -4 -65 -9 -65 -6 0 -51 39 -101 87 -136 129 -212 243 -295 441 -26
61 -50 112 -54 112 -5 0 -36 -18 -70 -40 -34 -22 -64 -40 -68 -40 -3 0 -3 70
0 155 6 146 8 161 47 277 62 186 70 187 89 18z m1078 -546 c17 -23 17 -55 0
-78 -12 -17 -16 -17 -43 -3 -45 23 -88 73 -80 93 9 23 104 15 123 -12z m-168
-55 c48 -34 51 -59 8 -70 -44 -12 -167 32 -167 60 0 13 62 41 91 41 14 0 45
-14 68 -31z m-133 -101 c37 -17 36 -28 -7 -56 -30 -21 -42 -23 -94 -18 -32 3
-63 10 -67 14 -5 5 8 26 28 46 33 34 41 38 74 33 21 -3 51 -11 66 -19z m254
-8 c0 -22 -79 -61 -135 -67 -43 -5 -56 -3 -51 6 22 34 186 89 186 61z m-345
-130 c10 -16 -21 -58 -58 -81 -38 -23 -105 -45 -113 -36 -13 13 8 61 41 94 28
28 40 33 78 33 25 0 49 -5 52 -10z m-55 -181 c0 -30 -34 -82 -74 -113 -47 -35
-56 -33 -56 14 0 53 17 86 54 104 46 23 76 21 76 -5z m15 -180 c6 -34 2 -51
-25 -105 -17 -35 -35 -64 -39 -64 -13 0 -41 69 -41 102 0 22 11 41 39 69 21
22 43 39 49 39 6 0 13 -18 17 -41z m220 -125 c54 -31 115 -67 135 -81 l35 -25
-42 6 c-99 14 -212 78 -244 138 -16 30 9 22 116 -38z m-151 -6 c11 -16 16 -47
16 -106 l0 -83 -31 18 c-59 34 -68 78 -34 160 16 39 28 41 49 11z m179 -189
c36 -71 36 -74 16 -77 -29 -5 -77 16 -94 42 -15 21 -21 117 -8 129 15 15 50
-24 86 -94z m175 1 c71 -48 82 -67 46 -80 -68 -26 -111 -6 -148 68 -33 65 14
70 102 12z"/>
<path d="M4388 3025 c-3 -4 8 -50 26 -103 44 -131 66 -135 96 -14 6 23 15 40
20 37 5 -3 16 -30 25 -61 16 -56 40 -78 56 -53 5 8 21 50 35 94 15 44 29 86
32 93 2 7 -4 12 -16 12 -26 0 -38 -16 -51 -67 -7 -24 -15 -43 -20 -43 -4 0
-14 21 -22 48 -12 39 -18 47 -39 47 -20 0 -26 -8 -39 -47 -8 -27 -18 -48 -22
-48 -3 0 -15 24 -25 52 -17 48 -40 69 -56 53z"/>
<path d="M4725 3017 c-3 -7 -5 -54 -3 -103 2 -71 6 -89 18 -89 10 0 16 12 18
38 3 38 3 38 45 35 38 -3 42 -6 48 -36 8 -40 14 -46 34 -39 12 5 15 26 15 107
0 99 0 101 -22 98 -19 -2 -24 -10 -26 -45 -3 -40 -5 -43 -31 -43 -34 0 -48 15
-53 55 -3 32 -34 48 -43 22z"/>
<path d="M4960 2925 l0 -105 25 0 25 0 0 105 0 105 -25 0 -25 0 0 -105z"/>
<path d="M5088 3019 c-36 -21 -14 -109 27 -109 7 0 23 -9 36 -20 20 -16 21
-21 10 -29 -8 -5 -25 -5 -43 1 -59 21 -79 -12 -24 -39 27 -12 43 -14 68 -7 40
12 68 55 52 81 -9 15 -60 50 -99 67 -5 3 -2 11 9 20 13 11 24 12 44 5 32 -12
51 3 32 26 -14 17 -85 20 -112 4z"/>
<path d="M5276 3015 c-8 -21 -8 -143 0 -173 8 -28 37 -26 42 3 8 47 12 48 57
6 50 -46 84 -56 64 -18 -7 12 -20 34 -30 49 -25 35 -24 56 6 100 14 20 25 39
25 42 0 17 -33 1 -71 -33 l-44 -39 -10 36 c-11 39 -29 52 -39 27z"/>
<path d="M5500 2925 l0 -105 76 0 c66 0 75 2 72 18 -2 13 -16 18 -53 22 -64 6
-70 32 -10 40 27 3 40 10 40 20 0 10 -13 17 -40 20 -32 4 -40 9 -40 25 0 16 8
21 45 25 31 3 45 10 45 20 0 12 -15 16 -67 18 l-68 3 0 -106z"/>
<path d="M5690 3025 c0 -3 13 -32 30 -63 16 -31 32 -73 36 -92 9 -54 12 -60
29 -54 8 4 15 18 15 33 0 15 16 59 35 100 40 84 40 81 20 81 -8 0 -28 -18 -43
-40 -15 -21 -30 -39 -33 -40 -3 0 -15 18 -28 40 -14 25 -29 40 -42 40 -10 0
-19 -2 -19 -5z"/>
<path d="M3780 2023 l0 -220 -29 -37 c-39 -49 -44 -90 -39 -304 4 -152 7 -184
25 -224 28 -61 95 -133 158 -169 l50 -29 1188 0 1188 0 41 21 c23 12 67 47 98
78 79 78 91 117 97 312 7 204 0 260 -38 303 l-29 34 0 221 c0 121 -3 221 -7
221 -5 0 -18 -16 -30 -35 -22 -33 -23 -45 -23 -211 0 -96 -4 -183 -10 -193
-11 -22 -34 -26 -279 -51 -167 -17 -190 -23 -191 -54 0 -14 307 0 419 19 138
25 131 36 131 -207 0 -180 -1 -191 -24 -236 -13 -26 -46 -68 -73 -94 -90 -88
17 -81 -1260 -86 l-1133 -5 -53 26 c-74 37 -131 89 -158 145 -21 42 -24 65
-27 214 -3 92 -1 188 3 214 l6 46 52 -5 c29 -2 88 -11 132 -20 44 -8 110 -18
148 -22 67 -7 67 -7 67 18 0 35 -16 43 -95 51 -111 10 -219 28 -232 39 -10 7
-13 59 -13 196 l-1 186 -29 39 -30 40 0 -221z"/>
</g>
</svg>
